#format: frame checksums
#version: 2
#hash: MD5
#software: Lavf62.3.100
#tb 0: 1/2
#media_type 0: video
#codec_id 0: rawvideo
#dimensions 0: 180x320
#sar 0: 1/1
#stream#, dts,        pts, duration,     size, hash
0,          0,          0,        1,    86400, 6a1ce92f2757efbc709e33a27ac71927
0,          1,          1,        1,    86400, 1d3d47ed077a12b758616309c0c63e19
0,          2,          2,        1,    86400, ff9b70f3d2f02131e274a1bfaa2f2cf7
